<?xml version="1.0" encoding="utf-8"?>
<!-- Generator: Adobe Illustrator 27.0.1, SVG Export Plug-In . SVG Version: 6.00 Build 0)  -->
<svg version="1.1" id="Слой_1" xmlns="http://www.w3.org/2000/svg" xmlns:xlink="http://www.w3.org/1999/xlink" x="0px" y="0px"
	 viewBox="0 0 2000 2000" style="enable-background:new 0 0 2000 2000;" xml:space="preserve">
<style type="text/css">
	.st0{fill-rule:evenodd;clip-rule:evenodd;fill:#1E1B1C;}
</style>
<g>
	<path class="st0" d="M923.3,1296c-0.8-3.2-1.6-7.3-3.2-11.3c-1.6-4.8-3.2-9.7-4-14.5l-2.4-9.7c-0.8-4-3.2-8.1-4.8-12.1
		c-1.6-4-3.2-8.1-4.8-12.1c-1.6-4-3.2-8.9-2.4-13.7c0-1.6,0.8-3.2,1.6-4c0.8-0.8,1.6-1.6,2.4-2.4c0.8-0.8,1.6-1.6,2.4-2.4
		c0.8-1.6,1.6-2.4,0.8-4l-1.6-2.4c-0.8-0.8-1.6-1.6-1.6-2.4c0.8-0.8,1.6-0.8,2.4-1.6c0.8-0.8,2.4-0.8,3.2-0.8c3.2,0,5.6-1.6,7.3-3.2
		c0.8-1.6,1.6-4,2.4-6.5c0.8-5.6,0-10.5-1.6-15.3l-0.8-3.2l-0.8-2.4c-0.8-3.2-1.6-6.5-3.2-9.7l-1.6-3.2l-2.4-4.8
		c-0.8-3.2-0.8-6.5,0-9.7v-0.8c0.8-1.6,0.8-3.2,0-4c-0.8,0-0.8-0.8-1.6-0.8l-1.6-0.8c-0.8-0.8-1.6-1.6-1.6-2.4
		c0-0.5,0.4-0.8,0.9-0.8h1.5c2.4-0.8,4-2.4,4.8-4.8c0.8-1.6,0.8-3.2,0.8-5.6c0-1.6,0-4,0.8-5.6c0-0.8,0.8-2.4,1.6-3.2l1.6-3.2l0.8-4
		v-3.2l0.8-5.6c-0.8-1.6-0.8-3.2-1.6-4.8v-1.6c-0.8-2.4-1.6-4.8-3.2-7.3c-1.6-1.6-4-3.2-6.5-4c-4-1.6-8.9-0.8-12.9,1.6
		c-2.4,1.6-4,4.8-5.6,8.1l-0.8,3.2c-0.8,3.2-2.4,6.5-4.8,8.9c0,0.8-1.6,0.8-2.4,1.6h-0.8l-0.8,0.8c-1.6,0.8-3.2,2.4-4.8,1.6
		c-1.6-0.8-1.6-1.6-2.4-2.4c-0.8-1.6-0.8-2.4-0.8-4c0-2.4,0-4,0.8-6.5c0-0.8,0.8-2.4,0-3.2c-0.8,0-0.8-0.8-1.6-0.8s-2.4,0.8-3.2,1.6
		l-2.4,2.4l-3.2,2.4c-3.2,3.2-5.6,8.1-8.1,12.9l-1.6,4c-1.6,4.8-3.2,8.9-6.5,12.1l-4,3.2l-2.4,0.8c-1.6,0.8-4,1.6-5.6,3.2
		c-1.6,1.6-2.4,3.2-3.2,5.6c-0.8,2.4-2.4,5.6-1.6,8.1l0.8,2.4l0.8,2.4c0.8,0.8,0,2.4,0,3.2v2.4c0,0.8-0.8,2.4-1.6,3.2v0.8
		c-3.2,6.5-5.6,13.7-7.3,20.2l-3.2,13.7c-0.8,1.6-1.6,4-0.8,6.5c0,0.8,0,2.4,0.8,2.4c4-3.2,7.3-7.3,9.7-11.3c1.6-1.6,1.6-3.2,4-1.6
		c0,0,0.8,0.8,0.8,1.6c0.8,0.8,0,0.8,0,1.6v5.6c0,0.8-0.8,1.6,0,2.4c0,0,1.6,0.8,2.4,0.8c0.8,0.8,1.6,0.8,2.4,0.8
		c1.6,0,2.4,0.8,4,0.8h0.8c0.8,0,1.6,0,2.4,0.8c1.6,0.8,1.6,3.2,0.8,4.8l-1.6,2.4l-1.6,1.6l-1.6,0.8l-3.2,3.2
		c-0.8,0.8-2.4,0.8-3.2,0.8c-0.8-0.8-0.8-2.4-1.6-4c-0.8-1.6-1.6-4-2.4-4c-0.8,0.8-0.8,1.6-1.6,2.4l-0.8,0.8l-0.8,0.8
		c-0.8,0.8-1.6,2.4-1.6,3.2c0,0.8,0,2.4,0.8,3.2v1.6c0.8,0.8,0.8,1.6,0.8,3.2v2.4c0,3.2,1.6,6.5,3.2,8.9l2.4,2.4
		c1.6,1.6,4,4,3.2,6.5c0,1.6-0.8,2.4-2.4,4l-0.8,0.8l-4.8,5.6l-2.4,3.2c-2.4,3.2-4.8,6.5-8.1,8.9l-5.6,5.6
		c-4.8,5.6-9.7,12.1-12.1,17.7l-2.4,5.6c-0.8,2.4-1.6,4.8-2.4,7.3l-0.8,1.6c-1.6,4-3.2,7.3-1.6,7.3c0.8,0,2.4-0.8,4-2.4l3.2-4
		c3.2-4,6.5-7.3,9.7-10.5l0.8-0.8l5.6-6.5l0.8-0.8c1.6-2.4,3.2-4.8,4-4c0,0,0,2.4-0.8,4.8c-1.6,6.5-3.2,10.5-5.6,15.3l-5.6,10.5
		l-1.6,3.2l-8.9,16.9c-1.6,2.4-3.2,4.8-5.6,5.6l-1.6,0.8c-0.8,0.8-2.4,0.8-2.4,1.6c0,0.8,0,1.6,0.8,2.4v0.8l0.8,0.8
		c0,1.6,0.8,2.4,1.6,3.2l1.6,0.8l1.6,1.6l0.8,0.8l0.8,1.6c0.8,0.8,3.2,0.8,4,0c1.6,0,1.6-1.6,2.4-2.4l0.8-1.6
		c0.8-1.6,1.6-2.4,3.2-3.2l0.8-0.8h0.8c1.6-0.8,2.4-2.4,4-1.6c0.8,0,0.8,0.8,1.6,1.6c0,0.8,0,2.4-0.8,4c0,0.8-0.8,0.8-0.8,1.6
		l-1.6,4c-0.2,1-0.3,1.9-0.5,2.7c-0.7,2.7,1.5,5.3,4.3,5l31.7-3.8c2.2-0.3,3.7-2.3,3.2-4.5l0,0c0-0.8,0.8-2.4,0-3.2
		c0-0.8-2.4,0-4,0.8l-1.6,0.8l-3.2,0.8h-1.6c-0.8,0-2.4,0.8-3.2,0c0-0.8-0.8-1.6-0.8-2.4c0-0.8,0-2.4,0.8-3.2l0.8-1.6v-2.4
		c0-0.8,0-2.4,0.8-3.2l2.4-2.4c1.6-0.8,3.2-0.8,5.6-1.6h0.8l7.3-1.6c2.4,0,4.8-0.8,7.3-2.4c1.6-1.6,3.2-2.4,4-4
		c0.8-0.8,1.6-1.6,2.4-3.2c0.8-0.8,0.8-1.6,0.8-2.4l0.8-2.4c0.8-2.4,2.4-3.2,4-4.8l6.5-3.2c0.8,0,2.4-0.8,3.2-0.8
		c2.4,0,4,0.8,4.8,2.4c0.8,0.8,0,1.6,0,3.2l-0.8,1.6c-0.1,1.4,0.7,2.2,0.7,3.8v1.6c0.8,3.2,0,7.3-0.8,10.5v1.6l0.2,1.9
		c0.3,2.1-0.2,4.3-1.3,6.2c-0.7,1.3-1.5,2.6-1.5,2.8c-0.7,2.9,0.5,6,2.7,8.1l15.9,14.3c3.5,3.1,8.4,4.1,12.8,2.7l8.6-2.8l-13.6-13
		c-0.8-0.8-3.4-6.9-2.6-9.3c0.8-3.2,4.2-3.5,4.2-6.8c0.8-9.7,3.2-18.5,7.3-27.4c0.8-4,2.4-7.3,3.2-11.3
		C924.1,1301.7,924.1,1299.3,923.3,1296z M1054.3,1296.5c-1.6-2.4-4-4-7.3-4.8c-3.2-1.6-7.3-2.4-10.5-4l-0.8-0.8
		c-3.2-0.8-5.6-2.4-8.1-4c-2.4-2.4-4-6.5-4.8-9.7c-0.8-3.2-1.6-7.3-2.4-10.5l-0.8-4.8c-0.8-4-1.6-8.1-4-12.9c-0.8-1.6-1.6-3.2-0.8-4
		l0.8-0.8l0.8-0.8c0-0.8,0.8-1.6,0.8-2.4l1.6-5.6l0.8-2.4l0.8-1.6c0.8-1.6,0.8-4,2.4-6.5l0.8-0.8c0.8-0.8,1.6-2.4,1.6-3.2
		c0-0.8,0-2.4-0.8-3.2c-0.8-1.6-1.6-4-2.4-5.6c-1.6-3.2-4-4.8-6.5-7.3c-2.4-1.6-4-2.4-6.5-2.4c-0.8,0.8-2.4,0.8-3.2,1.6h-0.8
		l-0.8,0.8c-1.6,0.8-2.4,1.6-4,2.4c-1.6,1.6-2.4,3.2-4,5.6c-3.2,4.8-5.6,8.9-5.6,14.5v1.6c0,1.6,0,3.2-0.8,4.8
		c-0.8,0.8-1.6,0.8-2.4,1.6h-4c-0.8-0.8-1.6-0.8-2.4-0.8h-2.4c-1.6-0.8-2.4-0.8-3.2,0c-0.8,0.8-1.6,1.6-1.6,3.2v4.8
		c-0.8,0.8-0.8,2.4,0,3.2l0.8,0.8l0.8,0.8c0,0.8-0.8,0.8-1.6,1.6l-2.4,1.6c-1.6,0.8-1.6,2.4-2.4,4l-0.8,1.6l-2.4,4l-2.4,4l-1.6,4.8
		l-0.8,3.2v0.8c0,0.8-0.8,1.6-0.8,2.4l0.8,2.4l0.8,0.8c0.8,1.6,1.6,2.4,0.8,4l-0.8,1.6c-0.8,0-0.8,0-0.8,0.8c-0.8,1.6-0.8,2.4,0,4
		c0,1.6,0.8,3.2,2.4,4l0.8,0.8c0.8,0,0.8,0,1.6,0.8v3.2l-0.8,9.7l-0.8,4.8l-0.8,4c-0.8,6.5-1.6,14.5-2.4,21.8c0,1.6-0.8,3.2-0.8,4.8
		c-0.8,4-1.6,8.9-1.6,12.9c0,0,0,0,0,0c0,3.1,1.8,5.9,4.7,7.1l17.4,7.4c4.5,1.9,9.6-1.2,9.9-6.2l0.8-14.9c-0.8-0.8-0.8-1.6,0-3.2
		c0.8-1.6,2.4-2.4,4-3.2c1.6-0.8,3.2-0.8,4,0c0.8,0.8,2.4,1.6,3.2,3.2l14.5,9.9c3.5,2.4,8.3,0,8.5-4.2l0.4-8.4
		c-0.8-0.8-2.4-3.2-2.4-4.8v-1.6c0-0.8,0-1.6-0.8-2.4l-0.8-0.8l-0.8-2.4c0-1.6,1.6-3.2,3.2-4c3.2-2.4,5.6-4,7.3-6.5
		c0,0,0.6,0,0.8-0.5c0.7-0.8,1.7-1.9,2.4-2.6c1.6-0.8,2.4-0.8,4-0.8c2.4,0,4.8,0,7.3-0.8c3.2-1.6,6.5-3.2,8.1-6.5
		C1056.7,1302.2,1056.7,1299.8,1054.3,1296.5z M1506,1171.9c-1.6-1.6-3.2-4-5.6-5.6c-2.4-2.4-6.5-4-10.5-3.2c-3.2,0-5.6,0.8-8.1,2.4
		c-4.8,1.6-8.1,4.8-8.9,10.5v1.6c0,1.6,0,4-1.6,5.6c-1,1-2,0.8-3,2.3c-0.5,0.5-1,0.9-1.5,1.4c-1.1,0.7-1.1,2.5-1.1,4.2
		c0.8,0.8,0.8,1.6,1.6,2.4l0.8,0.8c0,0.8,0.8,0.8,0.8,1.6s-1.6,0.8-2.4,1.6l-4,0.8c-2.4,0.8-5.6,1.6-7.3,3.2c-1.6,1.6-1.6,4-0.8,6.5
		l0.8,2.4c0,1.6-0.8,2.4-2.4,4c0,0-0.8,0-0.8,0.8c-5.6,4.8-8.9,12.1-8.9,19.4v4c0.8,1.6,0.8,2.4,0,4c0,0.8-0.8,1.6-1.6,2.4
		c-2.4,3.2-4,8.1-4,12.1l0.8,4.8c0.8,1.6,0.8,3.2,0.8,5.6c0,4-0.8,7.3-3.2,10.5c-1.6,1.6-3.2,3.2-5.6,4c-2.4,0.8-4,0-6.5,0
		c-5.6-0.8-10.5,0-15.3,2.4c-3.2,1.6-8.1,4-6.5,6.5c0,1.6,1.6,2.4,2.4,2.4c0.8,0,2.4,0,3.2-0.8l2.4-0.8c2.4,0,4,2.4,5.6,4.8
		c1.6,3.2,2.4,5.6,4,8.9l2.4,6.5v0.8c0.8,1.6,2.4,4,1.6,4.8l7.7,5.9c13.5,10.2,30.8,13.9,47.3,10.2l5.7-1.3c0-0.8,1.6-1.6,2.4-2.4
		l2.4-1.6c0.8-0.8,1.6-0.8,2.4-1.6l0.8-3.2v-0.8c0.8-2.4,0.8-4,1.6-5.6l0.8-1.6c1.6-4.8,2.4-10.5,2.4-15.3c0.8-4,0-7.3,0-11.3v-4
		c0-6.5-0.8-12.1-0.8-18.5v-3.2c0-5.6,0-10.5,0.8-15.3c0-3.2,0.8-5.6,1.6-8.9c1.6-7.3,3.2-13.7,0.8-21l-0.8-1.6
		c-1.6-3.2-2.4-5.6,0-8.1c0-0.8,0.8-0.8,1.6-1.6c0.8-0.8,0.8-0.8,1.6-1.6c1.6-1.6,1.6-4,1.6-6.5v-0.8l0.8-6.5l2.4-4.8l0.8-0.8
		c0.8-2.4,1.6-4,1.6-6.5C1509.2,1176.8,1507.6,1174.4,1506,1171.9z M1732.1,1124.4v-1.6l-1.6-8.1c0-4.8-0.8-8.9-2.4-12.9l-0.8-2.4
		c-0.8-2.4-1.6-4.8-2.4-8.1l-0.8-3.2c0-3.2,0-6.5-1.6-6.5c-0.8,0-2.4,1.6-4,4v0.8c0,0-0.8,0-0.8,0.8c-1.6,3.2-3.2,5.6-4,8.1
		c-0.8,1.6,0,4,0,6.5v2.4c0,4.8-0.8,9.7-1.6,14.5c-0.8,3.2-0.8,6.5-1.6,9.7l-0.8,3.2c0,4-1.6,7.3-2.4,10.5l-2.4,8.1l-2.4,8.9
		l-3.2,13.7c-0.8,1.6-1.6,3.2-1.6,5.6c0,3.2-0.8,6.5-2.4,9.7l-1.6,3.2c-1.6,2.4-2.4,5.6-4,6.5c-0.8,0.8-3.2,1.6-4.8,1.6
		c-2.4,0-4.8-1.6-7.3-3.2l-8.9-6.5l-2.4-2.4c-0.8,0-0.8-0.8-0.8-1.6c0.8-0.8,1.6-1.6,3.2-2.4c0.8-0.8,1.6-0.8,2.4-1.6
		c2.4-0.8,1.6-4,0.8-6.5v-1.6c-1.6-7.3,0-12.1,0.8-17.7l0.8-3.2c0-3.2,0.8-7.3,2.4-10.5l0.8-1.6c0.8-1.6,1.6-4,1.6-5.6
		c0-0.8,0-2.4-0.8-3.2c-0.8-2.4-0.8-4,0-5.6c0-1.6,2.4-2.4,4-3.2c3.2-1.6,5.6-2.4,8.9-2.4h1.6c2.4,0,4,0.8,5.6-0.8
		c0.8-0.8,2.4-2.4,1.6-3.2c-0.8-0.8-0.8-0.8-1.6-0.8l-0.8-0.8c-1.6,0-2.4-2.4-3.2-4l-0.8-2.4c-1.6-2.4-3.2-4-5.6-6.5
		c-0.8-0.8-2.4-1.6-3.2-3.2c-2.4-2.4-4-6.5-5.6-10.5l-1.6-3.2c-2.4-5.6-5.6-10.5-8.9-16.1l-4-6.5v-0.8c-2.4-2.4-4-5.6-6.5-7.3
		c-1.6-0.8-3.2-0.8-4.8-1.6h-1.6c-4.8-1.6-8.9-3.2-12.1-5.6c-3.2-1.6-4.8-3.2-7.3-7.3l-1.6-3.2c-0.8-2.4-1.6-4-2.4-4
		c-0.8,0-0.8,4-0.8,7.3c0,3.3,0.8,6.5,1.6,8.9c0.8,3.2,3.2,7.3,5.6,9.7l3.2,2.4c2.4,1.6,4,2.4,4.8,4c2.4,4,2.4,10.5,2.4,14.5
		c0,0.8,0,2.4-0.8,3.2l-0.8,0.8l-0.8,0.8l-0.8,1.6l-0.8,0.8c-2.4,4-6.5,6.5-11.3,8.9c-3.2,2.4-7.3,4.8-10.5,7.3l-4,3.2l-0.8,0.8
		c-1.6,0.8-3.2,1.6-4,3.2c0,0.8-0.8,2.4-0.8,3.2c0,0.8,1.6,0.8,2.4,1.6c1.6,0.8,3.2,0.8,4.8,1.6h0.8c0.8,0,3.2,0.8,3.2,1.6
		c0,0.8,0,2.4-0.8,3.2c-1.6,2.4-3.2,4-4.8,5.6s-3.2,3.2-5.6,4l-1.6,0.8c-0.8,0.8-1.6,0.8-2.4,1.6c-0.8,0.8-0.8,2.4-1.6,4l-0.8,2.4
		c-0.8,3.2-3.2,5.6-5.6,8.1l-3.2,2.4c-2.4,2.4-4,4.8-4.8,8.1c-1.6,3.2-1.6,6.5-2.4,9.7l-0.8,5.6l-0.8,2.4c-0.8,4-1.6,8.1,0.8,12.1
		c0,0.8,0.8,0.8,0.8,1.6c0.8,1.6,2.4,2.4,1.6,4l-0.8,1.6c-0.8,0.8-1.6,2.4-2.4,4c-3.2,5.6-4,12.1-5.6,18.5
		c-6.5,29.8-20.2,58.1-39.5,82.2c-8.9,10.5-19.4,21-31.4,29c-3.2,1.6-8.1,5.6-12.1,5.6l49.2,13c23.7,6.3,48.6,6.8,72.5,1.5l57-12.6
		c-2-0.7-1.7-6.9,2.3-26.2c0.8-6.5,3.2-13.7,4.8-20.2l0.8-2.4c2.4-9.7,4.8-19.4,7.3-29.8l0.8-4.8c1.6-8.9,3.2-16.1,5.6-24.2
		c0.8-1.6,1.6-4,2.4-5.6l2.4-3.2c0.8-1.6,2.4-3.2,3.2-4.8c1.6-2.4,0.8-6.5,0.8-9.7c-0.8-3.2-0.8-6.5,0-9.7c0.8-6.5,2.4-11.3,4-16.9
		c2.4-8.9,5.6-16.9,7.3-25.8v-1.6c0.8-4,0.8-7.3,3.2-10.5c0.8-0.8,2.4-2.4,3.2-3.2l4-1.6c1.6,0,3.2-0.8,4-1.6
		C1733.7,1132.5,1732.9,1128.4,1732.1,1124.4z M1679.9,1257.3l-0.8,1.6c-3.2,11.3-6.5,23.4-8.9,36.3l-0.8,5.7
		c-1.6,13.7-3.2,21-12.9,32.3c-2.4-16.1-0.8-33.1,4-48.4c4.8-16.1,10.5-31.4,16.9-45.2c3.2-7.3,7.3-16.1,8.1-12.9
		C1685.5,1237.2,1683.1,1247.7,1679.9,1257.3z M1451.5,1122.6c-0.6-0.3-1.1-0.5-1.6-0.8c-1.5,0.1-2.3,0.8-3.8,1.6
		c-5.6,4-9.7,8.1-13.7,12.9c-2.4,2.4-4,5.6-5.6,9.7v-1.6l-0.8,0.8l-33.9,36.3c-1.6-11.3-2.4-22.6-1.6-33.9v-2.4
		c0.8-5.6,0.8-12.1,0-21c0-1.6,0-3.2,0.8-4l1.6-0.8l1.6-0.8c1.6-1.6,0.8-4,0-5.6s-1.6-2.4-3.2-4c-1.6-0.8-2.4-1.6-3.2-3.2
		c-0.8-0.8-0.8-1.6-0.8-3.2c0-2.4,1.6-4,3.2-6.5c2.4-4,4-8.1,4.8-12.9c0-2.4,0.8-5.6,0.8-8.1c0-4-0.8-8.1-2.4-11.3
		c-2.4-4-6.5-6.5-11.3-7.3c-3.2-0.8-6.5-0.8-8.9,0.8c-2.4,1.6-4,4.8-6.5,8.1c0,1.6-0.8,2.4-1.6,2.4c-0.8,0-2.4-0.8-3.2-1.6
		c0-0.8-0.8-0.8-0.8-0.8l0.8,1.6l1.6,2.4c0.8,1.6,0.8,3.2,0,4.8c-0.8,0.8-0.8,1.6-0.8,2.4c0,0.8,0,2.4-0.8,3.2
		c-0.8,0.8-2.4,1.6-3.2,1.6s-0.8-1.6-0.8-3.2v-1.6c0-4.8-1.6-10.5-2.4-8.9c0,0,0,1.6-0.8,3.2c-0.8,2.4-0.8,4.8-1.6,4.8
		c-0.8,0-1.6-1.6-2.4-3.2l-0.8-2.4c-1.6-1.6-0.8,4.8-0.8,10.5c0,3.2,0,6.5-0.8,6.5c0,0-1.6-4-3.2-6.5v-0.8c-2.4-4-4-8.1-4.8-12.1
		l-0.8-0.8c-1.6-4.8-3.2-10.5-4-8.1v1.6c-0.8,1.6-0.8,3.2-1.6,3.2c-0.8,0-1.6-1.6-2.4-2.4l-0.8-0.8l0.8,1.6v0.8
		c0.8,4,1.6,6.5,2.4,8.9l0.8,2.4l0.8,2.4c0,2.4,0.8,4.8,1.6,7.3l0.8,2.4c0.8,3.2,0.8,5.6,3.2,9.7v0.8c0.8,0.8,0.8,1.6,0.8,2.4
		c0,0-1.6,0-2.4-0.8c-1.6-0.8-2.4-2.4-4-4l-0.8-0.8c-2.4-3.2-4.8-7.3-5.6-5.6c-0.8,0.8,0,1.6,0,3.2c0.8,4.8,3.2,7.3,4.8,9.7l2.4,2.4
		c1.6,2.4,2.4,4.8,3.2,7.3c0.8,3.2,0,5.6-0.8,8.9c-0.8,5.6-2.4,10.5-4,15.3l-0.8,1.6c-3.2,8.9-5.6,17.7-5.6,27.4
		c0,7.3,1.6,14.5,4,21.8l0.8,2.4c0.8,4.8,2.4,8.9,2.4,13.7c0,3.2-1.6,6.5-2.4,9.7v0.8c-0.8,4-1.6,7.3-2.4,11.3
		c-0.8,1.6-0.8,4-0.8,5.6c-0.8,8.1-2.4,15.3-4.8,22.6c-1.6,3.2-4.8,6.5-8.1,8.9l-4,3.2c-2.4,2.4-4.8,4.8-5.6,8.1
		c-0.8,2.4-0.8,4.8-0.8,7.3v3.2c0,2.4-0.8,4,0.8,4.8c0.8,0.8,1.6,0.8,2.4,0.8c1.6,0,1.6-2.4,1.6-4.8v-1.6c0-3.2,0.8-4.8,1.6-7.3
		c0.8-1.6,1.6-3.2,4-4.8c1.6-0.8,3.2-2.4,4-1.6c0.8,0,0.8,1.6,0,3.2c0,1.6-0.8,3.2-0.8,4.8c0,1.6,0,2.4-0.8,4l-1.6,4.8l-1.6,3.2
		c-0.8,4.8-1.6,8.9-2.4,13.7l-0.8,5.6l-1.6,6.5c0,3.2-0.8,6.5-1.6,9.7l-0.8,3.2l7.7,6.1c4.7,3.8,10.7,3,17.5,2.4l7.4-4.4l-0.3-4.3
		c-1.1-1.9-1.2-4.3-3.1-3.2c-0.1,0.1-2.7,0-2.8,0.1c-0.8,0.8-2.4,0.8-3.2,0.8c-2.4-0.8-2.4-4-1.6-8.1c2.4-7.3,4-15.3,7.3-22.6
		l2.4-6.5c1.6-4,3.2-8.1,4.8-12.1c0.8-2.4,1.6-4,2.4-5.6c1.6-3.2,5.6-4,10.5-4.8l4.8-0.8l3.2-0.8c4.8-1.6,9.7-2.4,10.5,0
		c-0.9,8.3-1.7,17.1-3.3,25.2l-1.6,4.8c-0.8,4.8-1.6,8.9-2.4,13.7v0.8c0,1.6-0.8,4-1.6,4.8l7.9,6.2c4.9,1.8,7.9,3.7,12.4,6.6
		l10.9,2.1c4.4-1.4,7.4-5.6,7.2-10.2c0-0.6-0.1-0.9-0.3-0.7c-0.8,0-1.6,0.8-2.4,0.8c-3.2,1.6-7.3,0-11.3-2.4
		c-3.2-0.8-3.2-1.6-2.4-4.8c1.6-4,1.6-8.1,2.4-11.3c0.8-8.9,3.2-16.9,5.6-25l0.8-2.4c1.6-3.2,3.2-6.5,3.2-10.5
		c0-3.2-0.8-6.5-1.6-8.9v-0.8c-0.8-4-1.6-8.1-4-12.9l-0.8-0.8c-0.8-1.6-1.6-4-0.8-4.8l1.6-0.8l0.8-0.8c2.4-1.6,3.2-4,4-6.5l0.8-2.4
		c0.8-3.2,3.2-6.5,5.6-8.9l0.8-0.8c4-4,7.3-8.1,10.5-12.1c6.5-9.7,9.7-20.2,12.1-30.6c0-0.8,0.8-1.6,0.8-2.4c0.8-4,1.6-7.3,2.4-10.5
		l3.2-7.3c0.8-1.6,1.6-3.2,2.4-5.6l0.8-2.4c1.6-3.2,2.4-6.5,5.6-9.7l2.4-1.6C1451.4,1127.9,1454.3,1125.9,1451.5,1122.6z
		 M1422.7,1161.4c-0.8,7.3-1.6,10.5-4,16.9c-0.8,4-2.4,7.3-4.8,10.5c-2.4,4-5.6,7.3-9.7,9.7c-2.4,0.8-5.6,2.4-7.3,1.6
		c-0.8-0.8-1.6-2.4-2.4-4l-1.6-6.5l-1.6-4l33.8-35.5L1422.7,1161.4z M1301.2,1263.6c-0.8,0-2.4,0-4.8,0.8c-3.2,0.8-5.6,1.6-8.9,0.8
		c-2.4,0-4.8-0.8-6.5-1.6l-4-3.2l-3.2-3.2c-0.8-0.8-1.6-2.4-2.4-3.2v-1.6l-0.8-1.6c-0.8-1.6-4-3.2-5.6-2.4c-0.8,0.8-0.8,1.6-1.6,2.4
		v1.6c0,1.6-0.8,2.4-1.6,2.4c-0.8,0-0.8-1.6-1.6-2.4c-0.8-1.6-0.8-3.2-0.8-4.8v-2.4c0-1.6-0.8-3.2-2.4-4.8c-0.8-2.4-1.6-4-2.4-6.5
		c-0.8-2.4,0-4.8,0.8-7.3l0.8-2.4c0.8-1.6,0.8-3.2,0.8-4.8s0.8-3.2,0.8-4.8v-0.8c0-1.6,0.8-2.4,0-4c-0.8-0.8-0.8-2.4-1.6-3.2
		c-0.8-1.6-1.6-3.2-0.8-4c0-0.8,1.6-0.8,2.4-1.6h0.8c1.6-0.8,2.4-1.6,3.2-3.2c0.8-1.6,0.8-4,0-5.6l-2.4-4l-0.8-0.8
		c-1.6-3.2-3.2-6.5-4-9.7l-0.8-3.2l-0.8-1.6c0-0.8-0.8-2.4-0.8-4s0-2.4,0.8-3.2h1.6l1.6-0.8c0.8,0,0.8-1.6,0.8-3.2v-8.1
		c0.8-4,0-8.1-0.8-12.1c-2.4-5.6-7.3-9.7-12.9-11.3c-4.8-1.6-9.7-0.8-13.7,1.6c-4,2.4-6.5,7.3-8.1,12.1c-1.6,4.8-3.2,8.9-4,13.7v0.8
		c0,2.4-0.8,5.6-2.4,8.1c-1.6,1.6-3.2,3.2-5.6,4.8l-3.2,2.4c-3.2,2.4-5.6,6.5-7.3,10.5c-5.6,12.1-8.9,25-9.7,37.9v0.8
		c0,4,0,8.9-3.2,10.5c-1.6,0.8-3.2,1.6-4.8,1.6l-3.2,0.8l-9.7,1.6c-2.4,0-4,0-4.8,1.6c0,0.8,0,1.6,0.8,2.4c0,0,0,0.8,0.8,0.8
		l0.8,0.8c1.6,0.8,1.6,1.6,2.4,3.2c1.6,3.2,4,6.5,7.3,8.9l2.4,1.6c1.6,0.8,3.2,1.6,4,3.2c2.4,2.4,2.4,6.5,0.8,9.7l-1.6,3.2
		c-1.6,3.2-4.8,6.5-7.3,8.9l-8.9,8.9l-0.8,0.8c-2.4,2.4-4.8,5.6-8.9,8.1h-0.8c-0.8,0.8-2.4,1.6-2.4,2.4l0.8,2.4l0.8,0.8
		c0.8,0.8,0.8,2.4,0.8,3.2c0.8,1.6,0.8,2.4,1.6,4c0.8,1.6,4,3.2,6.5,2.4c1.6,0,2.4-3.2,3.2-5.6l0.8-2.4c1.6-4,4-7.3,6.5-9.7
		c3.2-3.2,7.3-6.5,10.5-9.7c0,0,0,1.6-0.8,4v1.6l-0.8,6.5l-0.8,4c-0.8,4-2.4,8.1-4.8,12.9c-1.6,3.2-3.2,6.5-2.4,8.9l2.4,4
		c0.8,2.4,0.8,4.8-0.8,6.5l8.4,5.8c6.6,4.6,15.4,4.6,22.1,0.2l4.4-2.9c0-1.6,2.4-4,4.8-5.6c2.4-1.6,5.6-0.8,7.3,0
		c3.2,1.6,4.8,3.2,7.3,5.6l18.1,6c6.5,2.1,13.2-2.5,13.5-9.3l0.1-3.4c-1.6-1.6-2.4-6.5-2.4-9.7v-0.8c0-4-0.8-8.1-1.6-12.1l-0.8-3.2
		c-0.8-2.4-1.6-5.6-1.6-8.9c0-0.8,0-2.4,0.8-3.2c0.8-0.8,3.2,0,4,0.8c2.4,0.8,1.6,3.2,1.6,5.6c0,1.6-0.8,2.4,0,3.2
		c0,0.8,1.6,0,3.2-0.8c8.1-4.8,15.3-9.7,22.6-15.3c4-4,6.5-8.1,9.7-14.5l2.4-4.8C1300.4,1266,1302,1264.4,1301.2,1263.6z
		 M1252.6,1273.5l-4,7.3l-2.4-7.3l-2.4-4l-2.4-5.6c-0.8-1.6-1.6-4.8-0.8-5.6c0.8-0.8,3.2,0,5.6,0.8c2.4,0.8,3.2,2.4,4.8,4
		C1255,1267,1255,1268.7,1252.6,1273.5z M1267.9,1283.1c-1.6-0.8-2.4-2.4-2.4-4.8c0-1.6,0.8-4.8,1.6-4.8l1.6,0.8
		c1.6,0.8,1.6,2.4,1.6,4C1270.3,1280.7,1270.3,1281.5,1267.9,1283.1z M1279.9,1277.5c-0.8,0.8-1.6,0-2.4,0c-0.8-0.8-1.6-2.4-1.6-4
		c0-0.8,0-2.4,0.8-3.2c0.8-0.8,3.2,1.6,4,4C1280.7,1275.1,1280.7,1276.7,1279.9,1277.5z M1140.3,1208.8l-0.8-0.8
		c-1.6-1.6-1.6-2.4-2.4-3.2c-0.8-1.6-1.6-3.2-3.2-4c-2.4-2.4-5.6-3.2-8.9-3.2c-5.6,0-11.3,4.8-13.7,9.7c-0.8,1.6-0.8,4-1.6,5.6
		l-0.8,3.2c-0.8,2.4-2.4,4-4,5.6c-0.8,0.8-1.6,0.8-2.4,1.6c-1.6,0-2.4,0.8-3.2,1.6c-0.8,0.8-0.8,1.6-1.6,2.4v1.2
		c-0.4,0.6-0.7,1.1-1.1,1.7c-1.8,0.9-3.5,1.8-6.1,2.7l-3.2,1.6c-2.4,1.6-4,4-6.5,6.5c-2.4,3.2-4.8,6.5-4.8,9.7v6.4l-1.6,3.2
		c-0.8,0.8-1.6,1.6-1.6,2.4c-0.8,2.4-0.8,4.8,0.8,6.5l3.2,2.4c0.8,0.8,1.6,1.6,2.4,2.4c1.6,1.6,1.6,4,0.8,6.5
		c-0.8,3.2-1.6,5.6-3.2,8.1l-0.8,0.8l-2.4,5.6c-3.2,6.5-6.5,14.5-12.1,19.4c-2.4,2.4-5.6,4-8.9,4l-3.2-0.8c-1.6-0.8-2.4-0.8-4-0.8
		c-1.6,0.8-3.2,1.6-4,3.2c-1.6,1.6-1.6,4-0.8,5.6c0.8,1.6,3.2,2.4,4.8,2.4l3.2-1.6c0.8,0,1.6,0,2.4,0.8c0.8,0,1.6,1.6,2.4,2.4
		l1.6,1.6l2.4,1.6c1.6,1.6,3.2,2.4,4,4.8c0,1.6,0,3.2-0.8,4l-0.8,0.8l14.9,4.1c6,1.7,12.3,1.1,17.9-1.5l22.2-10.3
		c-0.8-0.8,0-1.6,0.8-3.2c0.8-0.8,1.6-2.4,1.6-4s0-2.4,2.4-4c1.6-1.6,4-3.2,5.6-2.4c0.8,0.8,1.6,2.4,2.4,4c2.4,2.4,4.8,4,4,5.6
		l8.6,1c-1.6-0.8-2.4-2.4-3.2-4c-0.8-1.6-0.8-2.4-0.8-4v-0.8c-2.4-8.1-3.2-16.1-4-25v-1.6l-0.8-8.1l-0.8-3.2c0-3.2-0.8-5.6-0.8-9.7
		v-1.6c0-2.4,0-4-1.6-5.6l-0.8-0.8l-0.8-0.8c-0.8,0-0.8-1.6-0.8-2.4l-0.8-3.2l-0.8-4v-4c0-2.4,0-5.6-0.8-8.1v-1.6
		c-0.8-1.6-1.6-2.4-0.8-4c0.8-0.8,1.6-0.8,2.4-1.6l1.6-1.6c0-0.8,0.8-2.4,0.8-3.2v-0.8l0.8-4.8l9.7-0.8v-1.6l1.6-5.6l0.8-2.4
		l0.8-2.4C1142.7,1211.2,1141.9,1211.2,1140.3,1208.8z M779.9,1352.4l-1.6-6.5c-0.8-5.6-2.4-11.3-4-16.1l-3.2-8.1l-2.4-5.6
		c-0.8-1.6-0.8-3.2-1.6-5.6c0-3.2,0-6.5,0.8-8.9c0.8-4,0.8-8.9,0.8-12.9V1271c0-3.2,0-6.5-1.6-9.7l-0.8-1.6c0-1.6-0.8-2.4-0.8-4
		c0-0.8,0.8-2.4,1.6-3.2l1.6-1.6l3.2-4l0.8-2.4l1.6-3.2l1.6-2.4c0.8-1.6,1.6-2.4,2.4-4c0-1.6,0-3.2-0.8-4.8v-0.8l-0.8-3.2l-1.6-5.6
		c-2.4-6.5-4.8-7.3-11.3-8.1c-3.2,0-5.6-0.8-8.1,0.8c-0.8,1.6-2.4,2.4-3.2,4c-1.6,2.4-2.4,4.8-4,7.3c-0.8,1.6-1.6,3.2-3.2,4.8
		c-0.8,1.6-0.8,1.6-2.4,0.8h-0.8c-1.6,0-3.2-0.8-5.6-0.8c-2.4,0.8-4.8,1.6-7.3,3.2c-2.4,2.4-4,4.8-4.8,8.1c-0.8,3.2-1.6,6.5-2.4,9.7
		v1.6c0,1.6,0,2.4-0.8,4c-0.8,2.4-2.4,4-4,5.6l-3.2,3.2v0.8c-0.8,0-0.8,0.8-1.6,0.8c-0.8,0-1.6,0-1.6-0.8l0.8-0.8l0.8-2.4v-0.8
		l0.8-3.2c0-1.6,0-4-0.8-5.6c-0.8-2.4-1.6-4.8-2.4-7.3l-1.6-3.2c0-1.6-0.8-4-0.8-5.6l0.8-3.2l0.8-2.4c0.8-1.6,0-4,0-6.5v-0.8
		l-0.8-4.8l-0.8-1.6c0-1.6-0.8-3.2-0.8-4.8c0-0.8,0-2.4,0.8-3.2c0-0.8,0.8-0.8,1.6-0.8l1.6-0.8c0.8,0,1.6-1.6,1.6-2.4
		c0-0.8-0.8-1.6-2.4-2.4l-1.6-0.8c-1.6,0-3.2-0.8-4-2.4c-0.8-1.6,0-2.4,0.8-3.2c0-0.8,0.8-0.8,0.8-1.6c0-0.8,0-0.8-0.8-1.6
		c-1.6-1.6-2.4-1.6-4-0.8h-1.6v-3.2c-0.8-0.8-0.8-1.6,0-2.4l0.8-1.6c0.8-1.6,0.8-1.6-1.6-0.8c-1.6,0.8-2.4,1.6-4,2.4
		c-2.4,0.8-5.6,1.6-8.1,1.6h-0.8c-2.4,0-4,0-6.5,0.8c-4,0.8-8.1,2.4-12.1,4l-1.6,0.8l-4,1.6c-5.6,2.4-10.5,4-15.3,7.3
		c-2.4,1.6-4,3.2-6.5,4.8l-5.6,4l-0.8,0.8c-1.6,1.6-4,2.4-5.6,4.8v0.8l-1.6,1.6c-0.8,0-2.4,0-3.2-0.8c-0.8,0-0.8-0.8-1.6-1.6
		l-0.8-0.8c-1.6-3.2-4.8-3.2-7.3-2.4h-4c-1.6,0-3.2,0-4.8,0.8c-0.8,0-1.6,1.6-2.4,2.4l-0.8,1.6l-1.6,2.4c-0.8,1.6-1.6,1.6-3.2,1.6
		c-1.6,0-2.4-0.8-4-1.6l-2.4-1.6c-2.4-0.8-5.6-0.8-8.9,0c-8.1,0.8-15.3,3.2-22.6,6.5c-2.4,0.8-5.6,2.4-8.9,3.2H547
		c-1.6,0-4,0.8-4.8,2.4l-0.8,2.4l-0.8,2.4c-0.8,0.8-0.8,1.6-0.8,2.4v1.6c0,0.8,0,1.6-0.8,2.4c0,0.8-1.6,0.8-2.4,0.8h-0.8
		c-0.8,0.8-1.6,0.8-2.4,0.8c-2.4,0.8-4.8,2.4-7.3,4c-4.8,3.2-9.7,6.5-14.5,10.5c-4,3.2-8.1,7.3-11.3,11.3
		c-5.6,6.5-8.9,12.9-12.1,20.2l-4.8,9.7l-0.8,0.8c-1.6,2.4-2.4,4.8-3.2,7.3l-0.8,3.2c-0.8,1.6-0.8,4-1.6,5.6l-1.6,2.4
		c-1.6,1.6-2.4,3.2-3.2,4.8c-1.6,4-1.6,8.9-0.8,13.7l0.8,3.2v1.6c1.6,5.6,2.4,12.1,2.4,17.7c0,1.6,0,3.2-0.8,5.6
		c-0.8,1.6-1.6,3.2-4,3.2h-2.4l1.6,1.6l2.4,1.6c1.6,0.8,3.2,0.8,4.8,0.8c3.2-0.8,5.6-4,6.5-7.3c0.8-0.8,0.8-1.6,0.8-3.2l0.8-2.4
		c0-1.6,0.8-3.2,2.4-4.8c0.8-1.6,2.4-1.6,4-2.4c1.6,0,3.2-0.8,4-2.4s0.8-3.2,0.8-4.8v-5.6c0-1.6,0.8-3.2,1.6-4
		c0.8-3.2,2.4-5.6,3.2-8.9l0.8-0.8v-0.8c0.8-1.6,0.8-3.2,1.6-5.6l0.8-1.6l0.8-3.2c0-0.8,0,0.8,0.8,3.2l0.8,5.6
		c0.8,1.6,1.6,2.4,2.4,4l0.8,0.8c0.8,1.6,1.6,3.2,1.6,4.8s0,2.4-0.8,4c-1.6,3.2-3.2,7.3-4,11.3c-0.8,2.4-0.8,4-2.4,4.8
		c-0.8,0.8-1.6,1.6-2.4,1.6l-1.6,0.8c-3.2,1.6-4.8,6.5-5.6,10.5c-0.8,5.6,1.7,3,1.7,8.6l1.9,9.6c0,3.2-0.1,5.7-2.5,7.3
		c-0.4,0-0.2,1.5-0.2,2.3c0,0.9,0.1,1.8,0.9,1.9l9.5,1.2c2,0.5,3.9-1,3.7-3.1l-0.4-4.7c-0.8-6.5-0.8-9.7,3.2-15.3
		c3.2-4,6.5-7.3,10.5-10.5l1.6-1.6l4.8-4l4.8-5.6c0.8-1.6,2.4-2.4,3.2-4.8l0.8-0.8c0.8-2.4,2.4-4.8,4.8-2.4c1.6,0.8,1.6,2.4,2.4,4
		l0.8,2.4l1.6,1.6c0.8,0.8,1.6,1.6,1.6,2.4c0.8,0.8,0.8,2.4,0.8,3.2l-0.8,1.6l-0.8,1.6c-0.8,5.6,0.8,11.3,2.4,16.1l1.6,2.4
		c0.8,0.8,1.6,2.4,2.4,4l0.8,2.4l0.8,3.2c0.8,1.6,1.6,3.2,2.4,4c0.6,1.2,1.1,1.7,1.5,2.5c0.4,0.9,1.4,1.5,2.5,1.3l8.7-2
		c1.4-0.3,2.1-2,1.3-3.2c-1-1.6-8.6-7.3-9.1-9c-4.8-9.7,1.9-16.8,5.9-27.2l0.8-2.4c0.8-4,1.6-7.3,1.6-10.5v-0.8c0-1.6,0-2.4,0.8-4
		c0-0.8,0.8-1.6,1.6-2.4c1.6,0,2.4,0,4,0.8c2.4,0.8,4.8,1.6,7.3,1.6c3.2,0,7.3,0.8,10.5,0.8c2.4,0.8,4.8,0.8,7.3,0l4-0.8l4-1.6h0.8
		c1.6,0,3.2-0.8,4.8-1.6c0.8-0.8,1.6-0.8,1.6-0.8c0.8,0,0,0.8,0,1.6v7.2c0.8,1.6,0.8,4,0.8,6.5c-1,2.3-1.8,4.7-2.6,7.2
		c-0.8,1.6-0.8,3.2-1.6,5.6l-0.8,6.5v2.4c0,3.2-0.8,6.5-1.6,9.7c-0.4,1.2-0.8,2.5-1.3,3.7c-0.6,1.4,0.5,2.9,1.9,2.9l4.6,0.2
		c1.5,0.1,2.6-1.2,2.5-2.7c-0.3-3.1-0.2-6.2,0.4-9.3c0.8-2.4,1.6-4.8,2.4-7.3l1.6-3.2l1.6-4.8c1.6-5.6,3.2-10.5,6.5-15.3
		c2.4-4,4-4.8,8.1-4l1.6,0.8l4,0.8l1.6-0.8c0.8,0,2.4-0.8,3.2,0c0.8,0,1.6,0.8,2.4,1.6c0.8,0.8,0,3.2,0,4.8l-1.6,9.7
		c-0.8,1.6-0.8,3.2-2.4,5.6c-0.8,0.8-1.6,2.4-2.4,2.4s-0.8-0.8-1.6-1.6l-0.8-1.6c-0.8,0-1.6-0.8-2.4-0.8c-1.6,0.8-2.4,1.6-3.2,3.2
		l-0.8,1.6c-0.8,0.8-1.6,1.6-2.4,2.4c-0.8,0.8-2.4,1.6-3.2,3.2s-1.6,4-0.8,4.8c0,0.8,1.6,0.8,2.4,1.6c1.6,0,4,0.8,5.6,0.8
		c2.4,0,4.8-0.8,7.3-2.4l1.6-0.8l4-1.6h1.6c1.6-0.8,2.4-0.8,3.2-1.6c1.6-0.8,1.6-3.2,1.6-4.8c0-3.2,0.8-7.3,1.6-10.5
		c1.6-6.5,4-13.7,6.5-20.2c0.8-1.6,1.6-3.2,0.8-4.8c0-1.6-1.6-2.4-4-3.2l-2.4-0.8c-1.6-0.8-2.4-1.6-4-3.2l-2.4-2.4h-0.8l-1.6-1.6
		c0-1.6,0-3.2,0.8-4.8l2.4-8.9l0.8-2.4c1.6-3.2,2.4-6.5,3.2-9.7c0-2.4,0-4-0.8-6.5v-6.5c0-2.4,0.8-5.6,1.6-8.1l0.8-1.6l2.4-8.9
		l0.8-1.6c0.8-3.2,1.6-6.5,3.2-8.9c4-4.8,9.7-8.1,15.3-5.6c1.6,0,3.2,0.8,4,2.4c0.8,0.8,1.6,3.2,1.6,4.8c0,0.8,0,2.4,0.8,3.2
		c1.6,3.2,3.2,4.8,5.6,7.3c1.6,1.6,3.2,3.2,4,4.8c1.6,3.2,2.4,8.1,2.4,12.1v1.6c0,4.8,0.8,8.9,1.6,14.5c0.8,1.6,0.8,3.2,1.6,4
		c0.8,0,2.4-0.8,3.2-1.6l2.4-0.8c0.8,0.5,0.8,2.9,0,4.5l-1.6,4.8l-1.6,5.6c-0.8,4-0.8,8.9-1.6,13.7c-0.8,5.6-1.6,12.1-2.4,17.7
		l-0.8,4.8c-0.8,3.2-0.8,5.6-1.6,9.7v1.6c-0.6,3.1-0.8,5.7-1.9,7.5c-0.7,1.2-1,2.6-0.6,3.9l2.3,7.3c0.4,1.2,1.5,2.1,2.8,2.2l7.9,0.6
		c2,0.2,3.7-1.4,3.8-3.4l0.3-8.3l0.8-4.8c0-1.6,0-3.2,1.6-4c0.8,0,1.6,0,2.4,0.8h0.8c1.6,0.8,3.2,0.8,5.6,0.8h0.8
		c0.8,0,2.4,0,3.2,0.8c0.8,0.8,0.8,1.6,0.8,3.2v4.1c0,2.1,1.3,4,3.3,4.7l10,3.4c2.5,0.8,5-1,5.1-3.6l0.1-6v0c-0.2-0.3-0.2-0.7,0-1.2
		l0.8-2.4c0.8-1.6,0.8-1.6,1.6-4.8c0-0.8,0.8-2.4,1.6-3.2c0.8-0.8,1.6-0.8,2.4-0.8h1.6c1.6,0,2.4-0.8,3.2-1.6l0.8-0.8
		c1.6-0.8,3.2-1.6,4-2.4l1.6-0.8c1.6-1.6,4-3.2,4.8-2.4c0.8,0,0.8,0.8,1.6,1.6c0,0.8,0.8,1.6,1.6,2.4c1.6,0.8,3.2,1.6,4,0.8
		C780.7,1356.4,780.7,1354.8,779.9,1352.4z M455.7,1343.9c-0.8-0.8-5.6,0-9.7,0.8l-2.4,0.8c-4,0.8-6.5,1.6-8.9,0.8
		c-2.4-0.8-4.8-4-6.5-7.3l-0.8-1.6c-1.6-2.4-3.2-4.8-4.8-6.5c-6.5-6.5-15.3-8.9-24.2-10.5c-3.2-0.8-7.3-1.6-10.5-2.4
		c-8.9-2.4-16.1-7.3-23.4-12.9c-7.3-6.5-13.7-12.1-19.4-19.4c-6.5-8.9-11.3-19.4-13.7-30.6c-0.8-4-2.4-8.9-4-12.9
		c-1.6-4.8-3.2-9.7-4-14.5c0-1.6,0-3.2,0.8-4.8c1.8-1.8,2.6-3.6,4.6-2c0.3,0.6,0.6,1.1,1,1.7c0.1,0.2,0.2,0.2,0.8,0.2
		c0.8,0,0.8-2.4,0.8-4c0-4,0-6.5-2.4-8.9l-0.8-0.8c-1.6-1.6-3.2-3.2-2.4-4.8c0-0.8,0.8-1.6,1.6-1.6c0.8,0,0.8,0,1.6,0s0.8-1.6,0-2.4
		c-0.8-2.4-0.8-4-0.8-5.6c0-3.2,0-7.3-0.8-11.3c-0.8-6.5-2.4-12.1-5.6-17.7c-4-8.1-11.3-16.1-17.7-15.3c-3.2,0.8-7.3,4-9.7,7.3
		c-5.6,6.5-8.9,14.5-9.7,23.4v0.8c-0.8,3.2-0.8,5.6-2.4,8.1c-0.8,0.8-1.6,1.6-3.2,2.4c-2.4,0.8-4,1.6-5.6,4l-1.6,3.2
		c-0.8,1.6-1.6,2.4-1.6,2.4c-0.8,0-0.8-1.6-0.8-3.2c0-4,0.8-7.3,1.6-10.5l0.8-1.6c1.6-4,3.2-8.1,1.6-14.5c-0.8-4-2.4-9.7-4.8-8.1
		c-0.8,0-1.6,1.6-1.6,2.4c0,2.4,0,4,0.8,5.6c0.8,0.8,0.8,1.6,0.8,3.2c0,2.4,0,6.5-2.4,7.3H264c-1.6,0-3.2,0-4,0.8l-0.8,1.6
		c-0.5,0.5-1,1-1.5,1.5c-1.7,0.9-2.5,0.1-4.1-0.7c-0.8-0.8-1.6-0.8-2.4-0.8c-1.6,0-1.6,3.2-0.8,6.5v0.8c0.8,1.6,0.8,3.2,0,3.2
		c0,0.8-1.6,0-2.4-0.8l-2.4-0.8c-1.6,0,0,3.2,0.8,5.6v0.8c4.8,11.3,6.5,23.4,5.6,35.5c-0.8,6.5-3.2,12.1-5.6,18.5l-1.6,3.2
		c-3.2,8.1-5.6,16.1-3.2,25c1.6,3.2,3.2,6.5,5.6,9.7l1.6,3.2c2.4,4.8,4.8,8.9,4,13.7c0,2.4-0.8,4-2.4,6.5c-1.6,3.2-3.2,6.5-2.4,8.9
		c0,2.4,0.8,4,2.4,5.6c-15.3,11.3-29.8,22.6-45.2,34.7c-16.1,12.9-31.4,26.6-46.8,41.1h0.8c18.5-10.5,37.1-21,55.6-31.4l32.3-19.4
		c-0.8,4-1.6,8.9-2.4,12.9c0,4-0.8,8.9-1.6,13.7l-2.4,7.3c-0.8,3.2-1.6,6.5-2.4,9.7c0,3.2,0,6.5,0.8,9.7v2.4c0.8,1.6,0.8,4-0.8,4.8
		l-1.6,0.8c-0.8,0.8-1.6,0.8-1.6,1.6c-0.8,0.8,0,0.8,0,1.6l0.8,0.8v2.4c-0.8,1.6,0,3.2,0,5.6c0,8.1,0,15.3-1.6,23.4l-0.8,5.6
		l-1.6,12.9l1.3,2.2c2.7,4.6,8.6,6.1,13.2,3.4l6.4-3.8v-8.6l4-16.1l0.8-0.8c0.8-5.6,2.4-11.3,3.2-16.9v-0.8c0-2.4,0-4.8,1.6-6.5
		c0-0.8,1.6-1.6,2.4-2.4c2.4-1.6,7.3-0.8,10.5,0.8l4,1.6c2.4,1.6,4.8,2.4,8.1,3.2h1.6c2.4,0.8,4,0.8,4.8,2.4c0.9,1.7,0.9,3.3,0,5.8
		c-0.8,3.2-1.6,5.6-0.8,8.9v4.8l7.6,7.7c1,1,2.3,1.7,3.7,1.9l5,0.7c2.6,0.4,4.6-2.4,3.5-4.8l-1.9-4c0-0.8,0-1.6,0.8-3.2l0.8-2.4
		v-4.8c0.8-2.4,1.6-4.8,3.2-7.3l0.8-0.8c1.6-2.4,3.2-5.6,3.2-8.9v-0.8c0-1.6,0-3.2,0.8-4s2.4-1.6,3.2-1.6s2.4,0,3.2,0.8h0.8
		c1.6,0.8,3.2,1.6,4.8,0.8s2.4-3.2,3.2-4.8c0.8-1.6,0.8-4,1.6-6.5l0.8-2.4c1.6-4.8,3.2-9.7,6.5-13.7c3.2-3.2,5.6-6.5,8.9-8.9
		l0.8-0.8l0.8-0.8l6.5-5.6c2.4-0.8,4-2.4,6.5-4l2.4-2.4c0.8-1.6-1.6-2.4-4-4c-1.6-0.8-2.4-1.6-4-2.4c-4.8-3.2-8.1-8.1-7.3-9.7
		c0.8-2.4,10.5,4.8,16.9,10.5l2.4,2.4l5.6,4.8l6.5,4c2.2,1.5,4.5,2.3,6.8,1.1c0.3-0.3,0.5-0.6,0.8-0.9l2.9-5.8
		c0.8-2.4,1.6-4,3.2-4.8c1.6-0.8,3.2-0.8,5.6-0.8c1.6,0.8,2.4,0.8,4,1.6c1.6,0,2.4,0.8,4,0.8c3.2,0.8,7.3,0,8.9-3.2l0.8-1.6
		c0-1.6,0-2.4,0.8-2.4c0.8-0.8,1.6,0.8,3.2,1.6l1.6,0.8c3.2,3.2,7.3,4,9.7,2.4c2.4-0.8,3.2-2.4,4.8-4.8l3.2-4.8l4.8-4
		C454.1,1346.3,456.5,1344.7,455.7,1343.9z M301.1,1407.3c-1.6,4-3.2,8.1-5.6,12.1L293,1409c-0.8-4.8-1.6-9.7-4-14.5l-0.8-2.4
		c-0.8-3.2-2.4-6.5-1.6-6.5c0.8,0,3.2,0.8,4.8,2.4c2.4,1.6,3.2,4,4.8,5.6c0,1.6,1.6,2.4,2.4,4l0.8,0.8c0.8,0.8,1.6,1.6,2.4,3.2
		C302.7,1403.3,301.9,1404.9,301.1,1407.3z"/>
</g>
</svg>
