<?xml version="1.0" encoding="utf-8"?>
<!-- Generator: Adobe Illustrator 27.0.1, SVG Export Plug-In . SVG Version: 6.00 Build 0)  -->
<svg version="1.1" id="Слой_1" xmlns="http://www.w3.org/2000/svg" xmlns:xlink="http://www.w3.org/1999/xlink" x="0px" y="0px"
	 viewBox="0 0 1000 1000" style="enable-background:new 0 0 1000 1000;" xml:space="preserve">
<style type="text/css">
	.st0{fill:#090909;}
	.st1{fill:url(#SVGID_1_);}
	.st2{fill:url(#SVGID_00000132788758835040283870000011668641115357843125_);}
</style>
<g>
	<path class="st0" d="M500,804.3"/>
	<path class="st0" d="M967.9,504.6"/>
	<path class="st0" d="M16.4,968.9c-12,0.3-16.3-7-16.3-27.8c0-287.4,0-574.8,0-862.1c0-19.9,5.1-28.5,16.6-28
		c10.7,0.5,15.2,8.7,15.2,27.9c0,80.6-2.7,161.3,0.7,241.8c7.7,185.2,94.9,322.4,258.5,409.1c79,41.8,165,57.9,253.7,47.1
		C732.2,754.2,863,654.2,936.1,479.8c22.9-54.7,31.5-112.5,31.7-171.5c0.4-76.8,0.1-153.5,0.1-230.3c0-4.3-1.5-9.7,0.5-12.7
		c3.8-5.7,9.5-13.8,14.7-13.9c5.2-0.2,11.5,7.4,15.6,12.9c2.1,2.8,0.8,8.4,0.8,12.7c0,288.8,0,577.6,0,866.5c0,4.3,1.3,10-0.9,12.6
		c-4.4,5.2-10.7,11.7-16.4,11.9L16.4,968.9z"/>
	<path class="st0" d="M31.9,505.5"/>
	<radialGradient id="SVGID_1_" cx="494.3379" cy="339.9309" r="347.6834" gradientUnits="userSpaceOnUse">
		<stop  offset="2.512563e-03" style="stop-color:#FFD600"/>
		<stop  offset="0.2944" style="stop-color:#FFD400"/>
		<stop  offset="0.3996" style="stop-color:#FFCD01"/>
		<stop  offset="0.4746" style="stop-color:#FFC203"/>
		<stop  offset="0.5352" style="stop-color:#FFB105"/>
		<stop  offset="0.5871" style="stop-color:#FF9B08"/>
		<stop  offset="0.6331" style="stop-color:#FF7F0C"/>
		<stop  offset="0.6747" style="stop-color:#FF5F10"/>
		<stop  offset="0.713" style="stop-color:#FF3915"/>
		<stop  offset="0.747" style="stop-color:#FF101B"/>
		<stop  offset="0.7538" style="stop-color:#FF071C"/>
		<stop  offset="0.8935" style="stop-color:#FF691D"/>
		<stop  offset="1" style="stop-color:#FFB71D"/>
	</radialGradient>
	<path class="st1" d="M495,67.4c185.9,7.9,323.4,92.1,406.1,260.9c3.1,6.3,3.3,16.6,0.3,22.8c-74.3,152.2-194.7,242.2-364,259.2
		c-192.7,19.3-365.8-81.8-448.9-256.9c-4.6-9.6-4.4-17.6,0.3-27.1C160.5,181,276.2,95.7,436.2,70.8c10.9-1.7,21.9-2.6,32.9-3.2
		C477.7,67,486.4,67.4,495,67.4z M529.6,99.7c72,161,72.9,320-0.6,480.7c11.3-1.4,23.5-2.3,35.4-4.6
		c137.2-26.6,238.7-101.4,302.4-226.2c2.7-5.2,2.5-14.1-0.1-19.5c-35.6-73.7-89.6-130.8-159.2-173.1
		C652.7,123.7,592.8,105.5,529.6,99.7z M460.2,99.6c-10.9,1.4-22.7,2.5-34.2,4.6c-137.1,25.6-237.9,100.4-303,223.7
		c-4.4,8.4-4.9,15.2-0.3,23.9c62.3,119.1,159,192.9,290,221.7c15.9,3.5,32.1,5,46.9,7.3C387.6,419.1,386.4,260.1,460.2,99.6z
		 M494.7,113.6c-80.5,101.8-70.8,371.8,0.5,452.7C574.1,461,565.6,200.3,494.7,113.6z"/>
	
		<radialGradient id="SVGID_00000147187364906745042380000009325092526018324912_" cx="494.1493" cy="340.1363" r="314.8535" gradientUnits="userSpaceOnUse">
		<stop  offset="2.512563e-03" style="stop-color:#FF7700"/>
		<stop  offset="0.1181" style="stop-color:#FF6F02"/>
		<stop  offset="0.3001" style="stop-color:#FF5808"/>
		<stop  offset="0.5258" style="stop-color:#FF3311"/>
		<stop  offset="0.7538" style="stop-color:#FF071C"/>
		<stop  offset="0.8827" style="stop-color:#9D031D"/>
		<stop  offset="1" style="stop-color:#40001E"/>
	</radialGradient>
	<path style="fill:url(#SVGID_00000147187364906745042380000009325092526018324912_);" d="M529.6,99.7c63.2,5.8,123.1,23.9,178,57.3
		c69.6,42.3,123.6,99.4,159.2,173.1c2.6,5.4,2.8,14.3,0.1,19.5c-63.8,124.8-165.2,199.6-302.4,226.2c-11.9,2.3-24.1,3.2-35.4,4.6
		C602.5,419.7,601.6,260.7,529.6,99.7z M426,104.2c-137.1,25.6-237.9,100.4-303,223.7c-4.4,8.4-4.9,15.2-0.3,23.9
		c62.3,119.1,159,192.9,290,221.7c15.9,3.5,32.1,5,46.9,7.3c-72.1-161.6-73.3-320.6,0.5-481.2C449.3,101,437.5,102,426,104.2z"/>
	<path d="M494.7,113.6c70.9,86.7,79.5,347.4,0.5,452.7C423.9,485.4,414.2,215.4,494.7,113.6z"/>
</g>
</svg>
